<mxfile host="app.diagrams.net" agent="Mozilla/5.0 (Windows NT 10.0; Win64; x64) AppleWebKit/537.36 (KHTML, like Gecko) Chrome/138.0.0.0 Safari/537.36" version="28.0.6">
  <diagram name="페이지-1" id="1OCeiDsVpDTFg4guMiRZ">
    <mxGraphModel dx="2852" dy="1554" grid="1" gridSize="10" guides="1" tooltips="1" connect="1" arrows="1" fold="1" page="1" pageScale="1" pageWidth="827" pageHeight="1169" math="0" shadow="0">
      <root>
        <mxCell id="0" />
        <mxCell id="1" parent="0" />
        <mxCell id="vXdfwrLas3LhLGEerI5P-621" value="" style="rounded=0;whiteSpace=wrap;html=1;" vertex="1" parent="1">
          <mxGeometry x="20" y="10" width="1960" height="1590" as="geometry" />
        </mxCell>
        <mxCell id="vXdfwrLas3LhLGEerI5P-550" value="&lt;span style=&quot;color: rgba(0, 0, 0, 0); font-family: monospace; font-size: 0px; text-align: start; text-wrap-mode: nowrap;&quot;&gt;%3CmxGraphModel%3E%3Croot%3E%3CmxCell%20id%3D%220%22%2F%3E%3CmxCell%20id%3D%221%22%20parent%3D%220%22%2F%3E%3CmxCell%20id%3D%222%22%20value%3D%22%22%20style%3D%22endArrow%3Dopen%3Bhtml%3D1%3Brounded%3D0%3BentryX%3D1%3BentryY%3D0.25%3BentryDx%3D0%3BentryDy%3D0%3Bdashed%3D1%3BendFill%3D0%3B%22%20edge%3D%221%22%20parent%3D%221%22%3E%3CmxGeometry%20width%3D%2250%22%20height%3D%2250%22%20relative%3D%221%22%20as%3D%22geometry%22%3E%3CmxPoint%20x%3D%22775%22%20y%3D%22840%22%20as%3D%22sourcePoint%22%2F%3E%3CmxPoint%20x%3D%22585%22%20y%3D%22840.4999999999999%22%20as%3D%22targetPoint%22%2F%3E%3C%2FmxGeometry%3E%3C%2FmxCell%3E%3CmxCell%20id%3D%223%22%20value%3D%228.%20%EC%98%A4%EB%A5%98%EB%A9%94%EC%8B%9C%EC%A7%80%20%EB%B0%98%ED%99%98%26lt%3Bdiv%26gt%3B(%EC%83%88%20%EB%B9%84%EB%B0%80%EB%B2%88%ED%98%B8%20%EB%B6%88%EC%9D%BC%EC%B9%98)%26lt%3B%2Fdiv%26gt%3B%22%20style%3D%22edgeLabel%3Bhtml%3D1%3Balign%3Dleft%3BverticalAlign%3Dmiddle%3Bresizable%3D0%3Bpoints%3D%5B%5D%3B%22%20vertex%3D%221%22%20connectable%3D%220%22%20parent%3D%222%22%3E%3CmxGeometry%20x%3D%220.458%22%20y%3D%22-2%22%20relative%3D%221%22%20as%3D%22geometry%22%3E%3CmxPoint%20as%3D%22offset%22%2F%3E%3C%2FmxGeometry%3E%3C%2FmxCell%3E%3C%2Froot%3E%3C%2FmxGraphModel%3E&lt;/span&gt;" style="rounded=0;whiteSpace=wrap;html=1;dashed=1;" vertex="1" parent="1">
          <mxGeometry x="1000" y="260" width="930" height="820" as="geometry" />
        </mxCell>
        <mxCell id="vXdfwrLas3LhLGEerI5P-598" value="&lt;span style=&quot;color: rgba(0, 0, 0, 0); font-family: monospace; font-size: 0px; text-align: start; text-wrap-mode: nowrap;&quot;&gt;%3CmxGraphModel%3E%3Croot%3E%3CmxCell%20id%3D%220%22%2F%3E%3CmxCell%20id%3D%221%22%20parent%3D%220%22%2F%3E%3CmxCell%20id%3D%222%22%20value%3D%22%22%20style%3D%22endArrow%3Dopen%3Bhtml%3D1%3Brounded%3D0%3BentryX%3D1%3BentryY%3D0.25%3BentryDx%3D0%3BentryDy%3D0%3Bdashed%3D1%3BendFill%3D0%3B%22%20edge%3D%221%22%20parent%3D%221%22%3E%3CmxGeometry%20width%3D%2250%22%20height%3D%2250%22%20relative%3D%221%22%20as%3D%22geometry%22%3E%3CmxPoint%20x%3D%22775%22%20y%3D%22840%22%20as%3D%22sourcePoint%22%2F%3E%3CmxPoint%20x%3D%22585%22%20y%3D%22840.4999999999999%22%20as%3D%22targetPoint%22%2F%3E%3C%2FmxGeometry%3E%3C%2FmxCell%3E%3CmxCell%20id%3D%223%22%20value%3D%228.%20%EC%98%A4%EB%A5%98%EB%A9%94%EC%8B%9C%EC%A7%80%20%EB%B0%98%ED%99%98%26lt%3Bdiv%26gt%3B(%EC%83%88%20%EB%B9%84%EB%B0%80%EB%B2%88%ED%98%B8%20%EB%B6%88%EC%9D%BC%EC%B9%98)%26lt%3B%2Fdiv%26gt%3B%22%20style%3D%22edgeLabel%3Bhtml%3D1%3Balign%3Dleft%3BverticalAlign%3Dmiddle%3Bresizable%3D0%3Bpoints%3D%5B%5D%3B%22%20vertex%3D%221%22%20connectable%3D%220%22%20parent%3D%222%22%3E%3CmxGeometry%20x%3D%220.458%22%20y%3D%22-2%22%20relative%3D%221%22%20as%3D%22geometry%22%3E%3CmxPoint%20as%3D%22offset%22%2F%3E%3C%2FmxGeometry%3E%3C%2FmxCell%3E%3C%2Froot%3E%3C%2FmxGraphModel%3E&lt;/span&gt;" style="rounded=0;whiteSpace=wrap;html=1;dashed=1;" vertex="1" parent="1">
          <mxGeometry x="1020" y="710" width="890" height="180" as="geometry" />
        </mxCell>
        <mxCell id="vXdfwrLas3LhLGEerI5P-601" value="&lt;span style=&quot;color: rgba(0, 0, 0, 0); font-family: monospace; font-size: 0px; text-align: start; text-wrap-mode: nowrap;&quot;&gt;%3CmxGraphModel%3E%3Croot%3E%3CmxCell%20id%3D%220%22%2F%3E%3CmxCell%20id%3D%221%22%20parent%3D%220%22%2F%3E%3CmxCell%20id%3D%222%22%20value%3D%22%22%20style%3D%22endArrow%3Dopen%3Bhtml%3D1%3Brounded%3D0%3BentryX%3D1%3BentryY%3D0.25%3BentryDx%3D0%3BentryDy%3D0%3Bdashed%3D1%3BendFill%3D0%3B%22%20edge%3D%221%22%20parent%3D%221%22%3E%3CmxGeometry%20width%3D%2250%22%20height%3D%2250%22%20relative%3D%221%22%20as%3D%22geometry%22%3E%3CmxPoint%20x%3D%22775%22%20y%3D%22840%22%20as%3D%22sourcePoint%22%2F%3E%3CmxPoint%20x%3D%22585%22%20y%3D%22840.4999999999999%22%20as%3D%22targetPoint%22%2F%3E%3C%2FmxGeometry%3E%3C%2FmxCell%3E%3CmxCell%20id%3D%223%22%20value%3D%228.%20%EC%98%A4%EB%A5%98%EB%A9%94%EC%8B%9C%EC%A7%80%20%EB%B0%98%ED%99%98%26lt%3Bdiv%26gt%3B(%EC%83%88%20%EB%B9%84%EB%B0%80%EB%B2%88%ED%98%B8%20%EB%B6%88%EC%9D%BC%EC%B9%98)%26lt%3B%2Fdiv%26gt%3B%22%20style%3D%22edgeLabel%3Bhtml%3D1%3Balign%3Dleft%3BverticalAlign%3Dmiddle%3Bresizable%3D0%3Bpoints%3D%5B%5D%3B%22%20vertex%3D%221%22%20connectable%3D%220%22%20parent%3D%222%22%3E%3CmxGeometry%20x%3D%220.458%22%20y%3D%22-2%22%20relative%3D%221%22%20as%3D%22geometry%22%3E%3CmxPoint%20as%3D%22offset%22%2F%3E%3C%2FmxGeometry%3E%3C%2FmxCell%3E%3C%2Froot%3E%3C%2FmxGraphModel%3E&lt;/span&gt;" style="rounded=0;whiteSpace=wrap;html=1;dashed=1;" vertex="1" parent="1">
          <mxGeometry x="1000" y="930" width="930" height="150" as="geometry" />
        </mxCell>
        <mxCell id="vXdfwrLas3LhLGEerI5P-565" value="&lt;span style=&quot;color: rgba(0, 0, 0, 0); font-family: monospace; font-size: 0px; text-align: start; text-wrap-mode: nowrap;&quot;&gt;%3CmxGraphModel%3E%3Croot%3E%3CmxCell%20id%3D%220%22%2F%3E%3CmxCell%20id%3D%221%22%20parent%3D%220%22%2F%3E%3CmxCell%20id%3D%222%22%20value%3D%22%22%20style%3D%22endArrow%3Dopen%3Bhtml%3D1%3Brounded%3D0%3BentryX%3D1%3BentryY%3D0.25%3BentryDx%3D0%3BentryDy%3D0%3Bdashed%3D1%3BendFill%3D0%3B%22%20edge%3D%221%22%20parent%3D%221%22%3E%3CmxGeometry%20width%3D%2250%22%20height%3D%2250%22%20relative%3D%221%22%20as%3D%22geometry%22%3E%3CmxPoint%20x%3D%22775%22%20y%3D%22840%22%20as%3D%22sourcePoint%22%2F%3E%3CmxPoint%20x%3D%22585%22%20y%3D%22840.4999999999999%22%20as%3D%22targetPoint%22%2F%3E%3C%2FmxGeometry%3E%3C%2FmxCell%3E%3CmxCell%20id%3D%223%22%20value%3D%228.%20%EC%98%A4%EB%A5%98%EB%A9%94%EC%8B%9C%EC%A7%80%20%EB%B0%98%ED%99%98%26lt%3Bdiv%26gt%3B(%EC%83%88%20%EB%B9%84%EB%B0%80%EB%B2%88%ED%98%B8%20%EB%B6%88%EC%9D%BC%EC%B9%98)%26lt%3B%2Fdiv%26gt%3B%22%20style%3D%22edgeLabel%3Bhtml%3D1%3Balign%3Dleft%3BverticalAlign%3Dmiddle%3Bresizable%3D0%3Bpoints%3D%5B%5D%3B%22%20vertex%3D%221%22%20connectable%3D%220%22%20parent%3D%222%22%3E%3CmxGeometry%20x%3D%220.458%22%20y%3D%22-2%22%20relative%3D%221%22%20as%3D%22geometry%22%3E%3CmxPoint%20as%3D%22offset%22%2F%3E%3C%2FmxGeometry%3E%3C%2FmxCell%3E%3C%2Froot%3E%3C%2FmxGraphModel%3E&lt;/span&gt;" style="rounded=0;whiteSpace=wrap;html=1;dashed=1;" vertex="1" parent="1">
          <mxGeometry x="1020" y="400" width="890" height="310" as="geometry" />
        </mxCell>
        <mxCell id="vXdfwrLas3LhLGEerI5P-537" value="User" style="rounded=0;whiteSpace=wrap;html=1;" vertex="1" parent="1">
          <mxGeometry x="1000" y="58" width="120" height="60" as="geometry" />
        </mxCell>
        <mxCell id="vXdfwrLas3LhLGEerI5P-538" value="FrontEnd" style="rounded=0;whiteSpace=wrap;html=1;" vertex="1" parent="1">
          <mxGeometry x="1260" y="58" width="120" height="60" as="geometry" />
        </mxCell>
        <mxCell id="vXdfwrLas3LhLGEerI5P-539" value="BackEnd" style="rounded=0;whiteSpace=wrap;html=1;" vertex="1" parent="1">
          <mxGeometry x="1534" y="58" width="120" height="60" as="geometry" />
        </mxCell>
        <mxCell id="vXdfwrLas3LhLGEerI5P-540" value="DB" style="rounded=0;whiteSpace=wrap;html=1;" vertex="1" parent="1">
          <mxGeometry x="1810" y="58" width="120" height="60" as="geometry" />
        </mxCell>
        <mxCell id="vXdfwrLas3LhLGEerI5P-541" value="회원가입" style="text;html=1;align=center;verticalAlign=middle;resizable=0;points=[];autosize=1;strokeColor=none;fillColor=none;" vertex="1" parent="1">
          <mxGeometry x="990" y="28" width="70" height="30" as="geometry" />
        </mxCell>
        <mxCell id="vXdfwrLas3LhLGEerI5P-543" value="" style="endArrow=none;html=1;rounded=0;entryX=0.5;entryY=1;entryDx=0;entryDy=0;dashed=1;dashPattern=8 8;" edge="1" parent="1" source="vXdfwrLas3LhLGEerI5P-552" target="vXdfwrLas3LhLGEerI5P-537">
          <mxGeometry width="50" height="50" relative="1" as="geometry">
            <mxPoint x="1060" y="990" as="sourcePoint" />
            <mxPoint x="1310" y="730" as="targetPoint" />
          </mxGeometry>
        </mxCell>
        <mxCell id="vXdfwrLas3LhLGEerI5P-544" value="" style="group" vertex="1" connectable="0" parent="1">
          <mxGeometry x="15" y="20" width="835" height="500" as="geometry" />
        </mxCell>
        <mxCell id="vXdfwrLas3LhLGEerI5P-342" value="&amp;nbsp;" style="text;html=1;align=center;verticalAlign=middle;resizable=0;points=[];autosize=1;strokeColor=none;fillColor=none;" vertex="1" parent="vXdfwrLas3LhLGEerI5P-544">
          <mxGeometry y="8" width="30" height="30" as="geometry" />
        </mxCell>
        <mxCell id="vXdfwrLas3LhLGEerI5P-343" value="아이디 중복" style="text;html=1;align=center;verticalAlign=middle;resizable=0;points=[];autosize=1;strokeColor=none;fillColor=none;" vertex="1" parent="vXdfwrLas3LhLGEerI5P-544">
          <mxGeometry x="25" width="80" height="30" as="geometry" />
        </mxCell>
        <mxCell id="vXdfwrLas3LhLGEerI5P-344" value="User" style="rounded=0;whiteSpace=wrap;html=1;" vertex="1" parent="vXdfwrLas3LhLGEerI5P-544">
          <mxGeometry x="30" y="38" width="120" height="60" as="geometry" />
        </mxCell>
        <mxCell id="vXdfwrLas3LhLGEerI5P-401" value="FrontEnd" style="rounded=0;whiteSpace=wrap;html=1;" vertex="1" parent="vXdfwrLas3LhLGEerI5P-544">
          <mxGeometry x="246" y="38" width="120" height="60" as="geometry" />
        </mxCell>
        <mxCell id="vXdfwrLas3LhLGEerI5P-402" value="BackEnd" style="rounded=0;whiteSpace=wrap;html=1;" vertex="1" parent="vXdfwrLas3LhLGEerI5P-544">
          <mxGeometry x="525" y="38" width="120" height="60" as="geometry" />
        </mxCell>
        <mxCell id="vXdfwrLas3LhLGEerI5P-403" value="DB" style="rounded=0;whiteSpace=wrap;html=1;" vertex="1" parent="vXdfwrLas3LhLGEerI5P-544">
          <mxGeometry x="715" y="38" width="120" height="60" as="geometry" />
        </mxCell>
        <mxCell id="vXdfwrLas3LhLGEerI5P-410" value="" style="endArrow=none;html=1;rounded=0;entryX=0.5;entryY=1;entryDx=0;entryDy=0;dashed=1;dashPattern=8 8;" edge="1" parent="vXdfwrLas3LhLGEerI5P-544" source="vXdfwrLas3LhLGEerI5P-436" target="vXdfwrLas3LhLGEerI5P-402">
          <mxGeometry width="50" height="50" relative="1" as="geometry">
            <mxPoint x="585" y="500" as="sourcePoint" />
            <mxPoint x="595" y="250" as="targetPoint" />
          </mxGeometry>
        </mxCell>
        <mxCell id="vXdfwrLas3LhLGEerI5P-411" value="" style="endArrow=none;html=1;rounded=0;entryX=0.5;entryY=1;entryDx=0;entryDy=0;dashed=1;dashPattern=8 8;" edge="1" parent="vXdfwrLas3LhLGEerI5P-544" source="vXdfwrLas3LhLGEerI5P-430" target="vXdfwrLas3LhLGEerI5P-401">
          <mxGeometry width="50" height="50" relative="1" as="geometry">
            <mxPoint x="306" y="500" as="sourcePoint" />
            <mxPoint x="496" y="250" as="targetPoint" />
          </mxGeometry>
        </mxCell>
        <mxCell id="vXdfwrLas3LhLGEerI5P-412" value="" style="endArrow=none;html=1;rounded=0;entryX=0.5;entryY=1;entryDx=0;entryDy=0;dashed=1;dashPattern=8 8;" edge="1" parent="vXdfwrLas3LhLGEerI5P-544" source="vXdfwrLas3LhLGEerI5P-423" target="vXdfwrLas3LhLGEerI5P-344">
          <mxGeometry width="50" height="50" relative="1" as="geometry">
            <mxPoint x="90" y="500" as="sourcePoint" />
            <mxPoint x="285" y="210" as="targetPoint" />
          </mxGeometry>
        </mxCell>
        <mxCell id="vXdfwrLas3LhLGEerI5P-413" value="" style="endArrow=none;html=1;rounded=0;entryX=0.5;entryY=1;entryDx=0;entryDy=0;dashed=1;dashPattern=8 8;" edge="1" parent="vXdfwrLas3LhLGEerI5P-544" source="vXdfwrLas3LhLGEerI5P-442" target="vXdfwrLas3LhLGEerI5P-403">
          <mxGeometry width="50" height="50" relative="1" as="geometry">
            <mxPoint x="775" y="500" as="sourcePoint" />
            <mxPoint x="605" y="250" as="targetPoint" />
          </mxGeometry>
        </mxCell>
        <mxCell id="vXdfwrLas3LhLGEerI5P-427" value="" style="endArrow=none;html=1;rounded=0;entryX=0.5;entryY=1;entryDx=0;entryDy=0;dashed=1;dashPattern=8 8;" edge="1" parent="vXdfwrLas3LhLGEerI5P-544" target="vXdfwrLas3LhLGEerI5P-423">
          <mxGeometry width="50" height="50" relative="1" as="geometry">
            <mxPoint x="90" y="500" as="sourcePoint" />
            <mxPoint x="90" y="98" as="targetPoint" />
          </mxGeometry>
        </mxCell>
        <mxCell id="vXdfwrLas3LhLGEerI5P-423" value="" style="rounded=0;whiteSpace=wrap;html=1;" vertex="1" parent="vXdfwrLas3LhLGEerI5P-544">
          <mxGeometry x="75" y="130" width="30" height="280" as="geometry" />
        </mxCell>
        <mxCell id="vXdfwrLas3LhLGEerI5P-431" value="" style="endArrow=none;html=1;rounded=0;entryX=0.5;entryY=1;entryDx=0;entryDy=0;dashed=1;dashPattern=8 8;" edge="1" parent="vXdfwrLas3LhLGEerI5P-544" target="vXdfwrLas3LhLGEerI5P-430">
          <mxGeometry width="50" height="50" relative="1" as="geometry">
            <mxPoint x="306" y="500" as="sourcePoint" />
            <mxPoint x="306" y="98" as="targetPoint" />
          </mxGeometry>
        </mxCell>
        <mxCell id="vXdfwrLas3LhLGEerI5P-433" value="" style="endArrow=classic;html=1;rounded=0;entryX=0;entryY=0;entryDx=0;entryDy=0;" edge="1" parent="vXdfwrLas3LhLGEerI5P-544" target="vXdfwrLas3LhLGEerI5P-430">
          <mxGeometry width="50" height="50" relative="1" as="geometry">
            <mxPoint x="105" y="180" as="sourcePoint" />
            <mxPoint x="545" y="370" as="targetPoint" />
          </mxGeometry>
        </mxCell>
        <mxCell id="vXdfwrLas3LhLGEerI5P-434" value="1. 아이디 입력" style="edgeLabel;html=1;align=center;verticalAlign=middle;resizable=0;points=[];" vertex="1" connectable="0" parent="vXdfwrLas3LhLGEerI5P-433">
          <mxGeometry x="0.1232" y="-1" relative="1" as="geometry">
            <mxPoint x="-11" y="-1" as="offset" />
          </mxGeometry>
        </mxCell>
        <mxCell id="vXdfwrLas3LhLGEerI5P-437" value="" style="endArrow=none;html=1;rounded=0;entryX=0.5;entryY=1;entryDx=0;entryDy=0;dashed=1;dashPattern=8 8;" edge="1" parent="vXdfwrLas3LhLGEerI5P-544" target="vXdfwrLas3LhLGEerI5P-436">
          <mxGeometry width="50" height="50" relative="1" as="geometry">
            <mxPoint x="585" y="500" as="sourcePoint" />
            <mxPoint x="585" y="98" as="targetPoint" />
          </mxGeometry>
        </mxCell>
        <mxCell id="vXdfwrLas3LhLGEerI5P-438" value="" style="endArrow=classic;html=1;rounded=0;entryX=0;entryY=0;entryDx=0;entryDy=0;" edge="1" parent="vXdfwrLas3LhLGEerI5P-544" target="vXdfwrLas3LhLGEerI5P-436">
          <mxGeometry width="50" height="50" relative="1" as="geometry">
            <mxPoint x="315" y="210" as="sourcePoint" />
            <mxPoint x="445" y="300" as="targetPoint" />
          </mxGeometry>
        </mxCell>
        <mxCell id="vXdfwrLas3LhLGEerI5P-441" value="2. username=입력값 전달" style="edgeLabel;html=1;align=center;verticalAlign=middle;resizable=0;points=[];" vertex="1" connectable="0" parent="vXdfwrLas3LhLGEerI5P-438">
          <mxGeometry x="-0.473" y="-1" relative="1" as="geometry">
            <mxPoint x="63" y="-1" as="offset" />
          </mxGeometry>
        </mxCell>
        <mxCell id="vXdfwrLas3LhLGEerI5P-430" value="" style="rounded=0;whiteSpace=wrap;html=1;" vertex="1" parent="vXdfwrLas3LhLGEerI5P-544">
          <mxGeometry x="291" y="180" width="30" height="200" as="geometry" />
        </mxCell>
        <mxCell id="vXdfwrLas3LhLGEerI5P-443" value="" style="endArrow=none;html=1;rounded=0;entryX=0.5;entryY=1;entryDx=0;entryDy=0;dashed=1;dashPattern=8 8;" edge="1" parent="vXdfwrLas3LhLGEerI5P-544" target="vXdfwrLas3LhLGEerI5P-442">
          <mxGeometry width="50" height="50" relative="1" as="geometry">
            <mxPoint x="775" y="500" as="sourcePoint" />
            <mxPoint x="775" y="98" as="targetPoint" />
          </mxGeometry>
        </mxCell>
        <mxCell id="vXdfwrLas3LhLGEerI5P-442" value="" style="rounded=0;whiteSpace=wrap;html=1;" vertex="1" parent="vXdfwrLas3LhLGEerI5P-544">
          <mxGeometry x="760" y="227.5" width="30" height="75" as="geometry" />
        </mxCell>
        <mxCell id="vXdfwrLas3LhLGEerI5P-445" value="" style="endArrow=classic;html=1;rounded=0;entryX=0;entryY=0;entryDx=0;entryDy=0;" edge="1" parent="vXdfwrLas3LhLGEerI5P-544" target="vXdfwrLas3LhLGEerI5P-442">
          <mxGeometry width="50" height="50" relative="1" as="geometry">
            <mxPoint x="595" y="228" as="sourcePoint" />
            <mxPoint x="545" y="300" as="targetPoint" />
          </mxGeometry>
        </mxCell>
        <mxCell id="vXdfwrLas3LhLGEerI5P-446" value="3. username 존재 여부 조회" style="edgeLabel;html=1;align=center;verticalAlign=middle;resizable=0;points=[];" vertex="1" connectable="0" parent="vXdfwrLas3LhLGEerI5P-445">
          <mxGeometry x="-0.3819" y="-1" relative="1" as="geometry">
            <mxPoint x="29" y="-1" as="offset" />
          </mxGeometry>
        </mxCell>
        <mxCell id="vXdfwrLas3LhLGEerI5P-436" value="" style="rounded=0;whiteSpace=wrap;html=1;" vertex="1" parent="vXdfwrLas3LhLGEerI5P-544">
          <mxGeometry x="570" y="210" width="30" height="110" as="geometry" />
        </mxCell>
        <mxCell id="vXdfwrLas3LhLGEerI5P-447" value="" style="endArrow=classic;html=1;rounded=0;exitX=0;exitY=1;exitDx=0;exitDy=0;entryX=0.933;entryY=0.845;entryDx=0;entryDy=0;entryPerimeter=0;dashed=1;" edge="1" parent="vXdfwrLas3LhLGEerI5P-544" source="vXdfwrLas3LhLGEerI5P-442" target="vXdfwrLas3LhLGEerI5P-436">
          <mxGeometry width="50" height="50" relative="1" as="geometry">
            <mxPoint x="495" y="350" as="sourcePoint" />
            <mxPoint x="605" y="304" as="targetPoint" />
          </mxGeometry>
        </mxCell>
        <mxCell id="vXdfwrLas3LhLGEerI5P-449" value="4. true / false" style="edgeLabel;html=1;align=center;verticalAlign=middle;resizable=0;points=[];" vertex="1" connectable="0" parent="vXdfwrLas3LhLGEerI5P-447">
          <mxGeometry x="0.037" y="1" relative="1" as="geometry">
            <mxPoint x="9" y="-1" as="offset" />
          </mxGeometry>
        </mxCell>
        <mxCell id="vXdfwrLas3LhLGEerI5P-450" value="" style="endArrow=classic;html=1;rounded=0;entryX=1.033;entryY=0.695;entryDx=0;entryDy=0;entryPerimeter=0;exitX=0;exitY=1;exitDx=0;exitDy=0;" edge="1" parent="vXdfwrLas3LhLGEerI5P-544" source="vXdfwrLas3LhLGEerI5P-436" target="vXdfwrLas3LhLGEerI5P-430">
          <mxGeometry width="50" height="50" relative="1" as="geometry">
            <mxPoint x="495" y="350" as="sourcePoint" />
            <mxPoint x="545" y="300" as="targetPoint" />
          </mxGeometry>
        </mxCell>
        <mxCell id="vXdfwrLas3LhLGEerI5P-451" value="5. &quot;이미 사용 중&quot; / &quot;사용 가능&quot;" style="edgeLabel;html=1;align=center;verticalAlign=middle;resizable=0;points=[];" vertex="1" connectable="0" parent="vXdfwrLas3LhLGEerI5P-450">
          <mxGeometry x="0.3676" y="1" relative="1" as="geometry">
            <mxPoint x="45" y="-1" as="offset" />
          </mxGeometry>
        </mxCell>
        <mxCell id="vXdfwrLas3LhLGEerI5P-452" value="" style="endArrow=classic;html=1;rounded=0;exitX=0;exitY=1;exitDx=0;exitDy=0;" edge="1" parent="vXdfwrLas3LhLGEerI5P-544" source="vXdfwrLas3LhLGEerI5P-430">
          <mxGeometry width="50" height="50" relative="1" as="geometry">
            <mxPoint x="285" y="380" as="sourcePoint" />
            <mxPoint x="103" y="380" as="targetPoint" />
          </mxGeometry>
        </mxCell>
        <mxCell id="vXdfwrLas3LhLGEerI5P-453" value="6. 결과 출력" style="edgeLabel;html=1;align=center;verticalAlign=middle;resizable=0;points=[];" vertex="1" connectable="0" parent="vXdfwrLas3LhLGEerI5P-452">
          <mxGeometry x="-0.064" y="-2" relative="1" as="geometry">
            <mxPoint y="2" as="offset" />
          </mxGeometry>
        </mxCell>
        <mxCell id="vXdfwrLas3LhLGEerI5P-545" value="" style="group" vertex="1" connectable="0" parent="1">
          <mxGeometry x="70" y="610" width="805" height="920" as="geometry" />
        </mxCell>
        <mxCell id="vXdfwrLas3LhLGEerI5P-507" value="&lt;span style=&quot;color: rgba(0, 0, 0, 0); font-family: monospace; font-size: 0px; text-align: start; text-wrap-mode: nowrap;&quot;&gt;%3CmxGraphModel%3E%3Croot%3E%3CmxCell%20id%3D%220%22%2F%3E%3CmxCell%20id%3D%221%22%20parent%3D%220%22%2F%3E%3CmxCell%20id%3D%222%22%20value%3D%22%22%20style%3D%22endArrow%3Dopen%3Bhtml%3D1%3Brounded%3D0%3BentryX%3D1%3BentryY%3D0.25%3BentryDx%3D0%3BentryDy%3D0%3Bdashed%3D1%3BendFill%3D0%3B%22%20edge%3D%221%22%20parent%3D%221%22%3E%3CmxGeometry%20width%3D%2250%22%20height%3D%2250%22%20relative%3D%221%22%20as%3D%22geometry%22%3E%3CmxPoint%20x%3D%22775%22%20y%3D%22840%22%20as%3D%22sourcePoint%22%2F%3E%3CmxPoint%20x%3D%22585%22%20y%3D%22840.4999999999999%22%20as%3D%22targetPoint%22%2F%3E%3C%2FmxGeometry%3E%3C%2FmxCell%3E%3CmxCell%20id%3D%223%22%20value%3D%228.%20%EC%98%A4%EB%A5%98%EB%A9%94%EC%8B%9C%EC%A7%80%20%EB%B0%98%ED%99%98%26lt%3Bdiv%26gt%3B(%EC%83%88%20%EB%B9%84%EB%B0%80%EB%B2%88%ED%98%B8%20%EB%B6%88%EC%9D%BC%EC%B9%98)%26lt%3B%2Fdiv%26gt%3B%22%20style%3D%22edgeLabel%3Bhtml%3D1%3Balign%3Dleft%3BverticalAlign%3Dmiddle%3Bresizable%3D0%3Bpoints%3D%5B%5D%3B%22%20vertex%3D%221%22%20connectable%3D%220%22%20parent%3D%222%22%3E%3CmxGeometry%20x%3D%220.458%22%20y%3D%22-2%22%20relative%3D%221%22%20as%3D%22geometry%22%3E%3CmxPoint%20as%3D%22offset%22%2F%3E%3C%2FmxGeometry%3E%3C%2FmxCell%3E%3C%2Froot%3E%3C%2FmxGraphModel%3E&lt;/span&gt;" style="rounded=0;whiteSpace=wrap;html=1;dashed=1;" vertex="1" parent="vXdfwrLas3LhLGEerI5P-545">
          <mxGeometry x="10" y="570" width="790" height="280" as="geometry" />
        </mxCell>
        <mxCell id="vXdfwrLas3LhLGEerI5P-454" value="이메일 인증" style="text;html=1;align=center;verticalAlign=middle;resizable=0;points=[];autosize=1;strokeColor=none;fillColor=none;" vertex="1" parent="vXdfwrLas3LhLGEerI5P-545">
          <mxGeometry width="80" height="30" as="geometry" />
        </mxCell>
        <mxCell id="vXdfwrLas3LhLGEerI5P-455" value="User" style="rounded=0;whiteSpace=wrap;html=1;" vertex="1" parent="vXdfwrLas3LhLGEerI5P-545">
          <mxGeometry y="38" width="120" height="60" as="geometry" />
        </mxCell>
        <mxCell id="vXdfwrLas3LhLGEerI5P-456" value="FrontEnd" style="rounded=0;whiteSpace=wrap;html=1;" vertex="1" parent="vXdfwrLas3LhLGEerI5P-545">
          <mxGeometry x="230" y="38" width="120" height="60" as="geometry" />
        </mxCell>
        <mxCell id="vXdfwrLas3LhLGEerI5P-457" value="BackEnd" style="rounded=0;whiteSpace=wrap;html=1;" vertex="1" parent="vXdfwrLas3LhLGEerI5P-545">
          <mxGeometry x="460" y="38" width="120" height="60" as="geometry" />
        </mxCell>
        <mxCell id="vXdfwrLas3LhLGEerI5P-458" value="DB" style="rounded=0;whiteSpace=wrap;html=1;" vertex="1" parent="vXdfwrLas3LhLGEerI5P-545">
          <mxGeometry x="685" y="38" width="120" height="60" as="geometry" />
        </mxCell>
        <mxCell id="vXdfwrLas3LhLGEerI5P-461" value="" style="endArrow=none;dashed=1;html=1;rounded=0;dashPattern=8 8;entryX=0.5;entryY=1;entryDx=0;entryDy=0;" edge="1" parent="vXdfwrLas3LhLGEerI5P-545" source="vXdfwrLas3LhLGEerI5P-518" target="vXdfwrLas3LhLGEerI5P-455">
          <mxGeometry width="50" height="50" relative="1" as="geometry">
            <mxPoint x="60" y="1010" as="sourcePoint" />
            <mxPoint x="440" y="140" as="targetPoint" />
          </mxGeometry>
        </mxCell>
        <mxCell id="vXdfwrLas3LhLGEerI5P-462" value="" style="endArrow=none;dashed=1;html=1;rounded=0;dashPattern=8 8;entryX=0.5;entryY=1;entryDx=0;entryDy=0;" edge="1" parent="vXdfwrLas3LhLGEerI5P-545" source="vXdfwrLas3LhLGEerI5P-489" target="vXdfwrLas3LhLGEerI5P-456">
          <mxGeometry width="50" height="50" relative="1" as="geometry">
            <mxPoint x="288.89" y="1002" as="sourcePoint" />
            <mxPoint x="289" y="110" as="targetPoint" />
          </mxGeometry>
        </mxCell>
        <mxCell id="vXdfwrLas3LhLGEerI5P-463" value="" style="endArrow=none;dashed=1;html=1;rounded=0;dashPattern=8 8;entryX=0.438;entryY=0.95;entryDx=0;entryDy=0;entryPerimeter=0;" edge="1" parent="vXdfwrLas3LhLGEerI5P-545" source="vXdfwrLas3LhLGEerI5P-470" target="vXdfwrLas3LhLGEerI5P-457">
          <mxGeometry width="50" height="50" relative="1" as="geometry">
            <mxPoint x="515" y="1002" as="sourcePoint" />
            <mxPoint x="515" y="100" as="targetPoint" />
          </mxGeometry>
        </mxCell>
        <mxCell id="vXdfwrLas3LhLGEerI5P-464" value="" style="endArrow=none;dashed=1;html=1;rounded=0;dashPattern=8 8;entryX=0.5;entryY=1;entryDx=0;entryDy=0;" edge="1" parent="vXdfwrLas3LhLGEerI5P-545" source="vXdfwrLas3LhLGEerI5P-476">
          <mxGeometry width="50" height="50" relative="1" as="geometry">
            <mxPoint x="743.89" y="1010" as="sourcePoint" />
            <mxPoint x="743.89" y="98" as="targetPoint" />
          </mxGeometry>
        </mxCell>
        <mxCell id="vXdfwrLas3LhLGEerI5P-465" value="" style="rounded=0;whiteSpace=wrap;html=1;" vertex="1" parent="vXdfwrLas3LhLGEerI5P-545">
          <mxGeometry x="40.5" y="130" width="39" height="190" as="geometry" />
        </mxCell>
        <mxCell id="vXdfwrLas3LhLGEerI5P-467" value="" style="rounded=0;whiteSpace=wrap;html=1;" vertex="1" parent="vXdfwrLas3LhLGEerI5P-545">
          <mxGeometry x="271" y="140" width="40" height="160" as="geometry" />
        </mxCell>
        <mxCell id="vXdfwrLas3LhLGEerI5P-468" value="" style="endArrow=classic;html=1;rounded=0;entryX=0;entryY=0;entryDx=0;entryDy=0;" edge="1" parent="vXdfwrLas3LhLGEerI5P-545" target="vXdfwrLas3LhLGEerI5P-467">
          <mxGeometry width="50" height="50" relative="1" as="geometry">
            <mxPoint x="80" y="140" as="sourcePoint" />
            <mxPoint x="590" y="-20" as="targetPoint" />
          </mxGeometry>
        </mxCell>
        <mxCell id="vXdfwrLas3LhLGEerI5P-469" value="1. 이메일 입력 + &quot;인증코드 전송&quot; 클릭" style="edgeLabel;html=1;align=center;verticalAlign=middle;resizable=0;points=[];" vertex="1" connectable="0" parent="vXdfwrLas3LhLGEerI5P-468">
          <mxGeometry x="-0.5419" relative="1" as="geometry">
            <mxPoint x="46" as="offset" />
          </mxGeometry>
        </mxCell>
        <mxCell id="vXdfwrLas3LhLGEerI5P-473" value="" style="endArrow=none;dashed=1;html=1;rounded=0;dashPattern=8 8;entryX=0.438;entryY=0.95;entryDx=0;entryDy=0;entryPerimeter=0;" edge="1" parent="vXdfwrLas3LhLGEerI5P-545" source="vXdfwrLas3LhLGEerI5P-493" target="vXdfwrLas3LhLGEerI5P-470">
          <mxGeometry width="50" height="50" relative="1" as="geometry">
            <mxPoint x="515" y="1002" as="sourcePoint" />
            <mxPoint x="513" y="95" as="targetPoint" />
          </mxGeometry>
        </mxCell>
        <mxCell id="vXdfwrLas3LhLGEerI5P-470" value="" style="rounded=0;whiteSpace=wrap;html=1;" vertex="1" parent="vXdfwrLas3LhLGEerI5P-545">
          <mxGeometry x="490" y="170" width="40" height="110" as="geometry" />
        </mxCell>
        <mxCell id="vXdfwrLas3LhLGEerI5P-474" value="" style="endArrow=classic;html=1;rounded=0;entryX=0;entryY=0;entryDx=0;entryDy=0;" edge="1" parent="vXdfwrLas3LhLGEerI5P-545" target="vXdfwrLas3LhLGEerI5P-470">
          <mxGeometry width="50" height="50" relative="1" as="geometry">
            <mxPoint x="310" y="170" as="sourcePoint" />
            <mxPoint x="480" y="300" as="targetPoint" />
          </mxGeometry>
        </mxCell>
        <mxCell id="vXdfwrLas3LhLGEerI5P-475" value="2. 이메일 전달" style="edgeLabel;html=1;align=center;verticalAlign=middle;resizable=0;points=[];" vertex="1" connectable="0" parent="vXdfwrLas3LhLGEerI5P-474">
          <mxGeometry x="-0.4028" relative="1" as="geometry">
            <mxPoint x="36" as="offset" />
          </mxGeometry>
        </mxCell>
        <mxCell id="vXdfwrLas3LhLGEerI5P-477" value="" style="endArrow=none;dashed=1;html=1;rounded=0;dashPattern=8 8;entryX=0.5;entryY=1;entryDx=0;entryDy=0;" edge="1" parent="vXdfwrLas3LhLGEerI5P-545" source="vXdfwrLas3LhLGEerI5P-498" target="vXdfwrLas3LhLGEerI5P-476">
          <mxGeometry width="50" height="50" relative="1" as="geometry">
            <mxPoint x="743.89" y="1010" as="sourcePoint" />
            <mxPoint x="743.89" y="98" as="targetPoint" />
          </mxGeometry>
        </mxCell>
        <mxCell id="vXdfwrLas3LhLGEerI5P-476" value="" style="rounded=0;whiteSpace=wrap;html=1;" vertex="1" parent="vXdfwrLas3LhLGEerI5P-545">
          <mxGeometry x="725" y="180" width="40" height="80" as="geometry" />
        </mxCell>
        <mxCell id="vXdfwrLas3LhLGEerI5P-478" value="" style="endArrow=classic;html=1;rounded=0;entryX=0;entryY=0;entryDx=0;entryDy=0;" edge="1" parent="vXdfwrLas3LhLGEerI5P-545" target="vXdfwrLas3LhLGEerI5P-476">
          <mxGeometry width="50" height="50" relative="1" as="geometry">
            <mxPoint x="530" y="180" as="sourcePoint" />
            <mxPoint x="400" y="40" as="targetPoint" />
          </mxGeometry>
        </mxCell>
        <mxCell id="vXdfwrLas3LhLGEerI5P-479" value="3. 인증코드 생성 및 임시 저장&amp;nbsp;" style="edgeLabel;html=1;align=center;verticalAlign=middle;resizable=0;points=[];" vertex="1" connectable="0" parent="vXdfwrLas3LhLGEerI5P-478">
          <mxGeometry x="-0.2436" y="1" relative="1" as="geometry">
            <mxPoint x="26" y="1" as="offset" />
          </mxGeometry>
        </mxCell>
        <mxCell id="vXdfwrLas3LhLGEerI5P-480" value="" style="endArrow=classic;html=1;rounded=0;exitX=0;exitY=1;exitDx=0;exitDy=0;dashed=1;" edge="1" parent="vXdfwrLas3LhLGEerI5P-545" source="vXdfwrLas3LhLGEerI5P-476">
          <mxGeometry width="50" height="50" relative="1" as="geometry">
            <mxPoint x="350" y="90" as="sourcePoint" />
            <mxPoint x="530" y="260" as="targetPoint" />
          </mxGeometry>
        </mxCell>
        <mxCell id="vXdfwrLas3LhLGEerI5P-481" value="4. 저장 완료" style="edgeLabel;html=1;align=center;verticalAlign=middle;resizable=0;points=[];" vertex="1" connectable="0" parent="vXdfwrLas3LhLGEerI5P-480">
          <mxGeometry x="0.3974" y="-1" relative="1" as="geometry">
            <mxPoint x="41" y="1" as="offset" />
          </mxGeometry>
        </mxCell>
        <mxCell id="vXdfwrLas3LhLGEerI5P-482" value="" style="endArrow=classic;html=1;rounded=0;exitX=0;exitY=1;exitDx=0;exitDy=0;dashed=1;" edge="1" parent="vXdfwrLas3LhLGEerI5P-545" source="vXdfwrLas3LhLGEerI5P-470">
          <mxGeometry width="50" height="50" relative="1" as="geometry">
            <mxPoint x="380" y="170" as="sourcePoint" />
            <mxPoint x="310" y="280" as="targetPoint" />
          </mxGeometry>
        </mxCell>
        <mxCell id="vXdfwrLas3LhLGEerI5P-483" value="5. 인증코드 전송 완료" style="edgeLabel;html=1;align=center;verticalAlign=middle;resizable=0;points=[];" vertex="1" connectable="0" parent="vXdfwrLas3LhLGEerI5P-482">
          <mxGeometry x="0.3056" y="3" relative="1" as="geometry">
            <mxPoint x="38" y="-3" as="offset" />
          </mxGeometry>
        </mxCell>
        <mxCell id="vXdfwrLas3LhLGEerI5P-484" value="" style="endArrow=classic;html=1;rounded=0;exitX=0;exitY=1;exitDx=0;exitDy=0;dashed=1;" edge="1" parent="vXdfwrLas3LhLGEerI5P-545" source="vXdfwrLas3LhLGEerI5P-467">
          <mxGeometry width="50" height="50" relative="1" as="geometry">
            <mxPoint x="380" y="170" as="sourcePoint" />
            <mxPoint x="80" y="300" as="targetPoint" />
          </mxGeometry>
        </mxCell>
        <mxCell id="vXdfwrLas3LhLGEerI5P-485" value="6. 메세지 표시" style="edgeLabel;html=1;align=center;verticalAlign=middle;resizable=0;points=[];" vertex="1" connectable="0" parent="vXdfwrLas3LhLGEerI5P-484">
          <mxGeometry x="0.4503" y="-1" relative="1" as="geometry">
            <mxPoint x="48" y="1" as="offset" />
          </mxGeometry>
        </mxCell>
        <mxCell id="vXdfwrLas3LhLGEerI5P-486" value="" style="rounded=0;whiteSpace=wrap;html=1;" vertex="1" parent="vXdfwrLas3LhLGEerI5P-545">
          <mxGeometry x="41" y="380" width="39" height="70" as="geometry" />
        </mxCell>
        <mxCell id="vXdfwrLas3LhLGEerI5P-490" value="" style="endArrow=none;dashed=1;html=1;rounded=0;dashPattern=8 8;entryX=0.5;entryY=1;entryDx=0;entryDy=0;" edge="1" parent="vXdfwrLas3LhLGEerI5P-545" source="vXdfwrLas3LhLGEerI5P-516" target="vXdfwrLas3LhLGEerI5P-489">
          <mxGeometry width="50" height="50" relative="1" as="geometry">
            <mxPoint x="288.89" y="1002" as="sourcePoint" />
            <mxPoint x="290" y="98" as="targetPoint" />
          </mxGeometry>
        </mxCell>
        <mxCell id="vXdfwrLas3LhLGEerI5P-489" value="" style="rounded=0;whiteSpace=wrap;html=1;" vertex="1" parent="vXdfwrLas3LhLGEerI5P-545">
          <mxGeometry x="271" y="400" width="40" height="60" as="geometry" />
        </mxCell>
        <mxCell id="vXdfwrLas3LhLGEerI5P-491" value="" style="endArrow=classic;html=1;rounded=0;entryX=0;entryY=0;entryDx=0;entryDy=0;" edge="1" parent="vXdfwrLas3LhLGEerI5P-545">
          <mxGeometry width="50" height="50" relative="1" as="geometry">
            <mxPoint x="81" y="400" as="sourcePoint" />
            <mxPoint x="271.9999999999998" y="400" as="targetPoint" />
          </mxGeometry>
        </mxCell>
        <mxCell id="vXdfwrLas3LhLGEerI5P-492" value="1, 인증코드 입력 + &quot;인증번호 확인&quot; 클릭" style="edgeLabel;html=1;align=center;verticalAlign=middle;resizable=0;points=[];" vertex="1" connectable="0" parent="vXdfwrLas3LhLGEerI5P-491">
          <mxGeometry x="-0.7382" y="-1" relative="1" as="geometry">
            <mxPoint x="65" y="-1" as="offset" />
          </mxGeometry>
        </mxCell>
        <mxCell id="vXdfwrLas3LhLGEerI5P-494" value="" style="endArrow=classic;html=1;rounded=0;entryX=0;entryY=0;entryDx=0;entryDy=0;" edge="1" parent="vXdfwrLas3LhLGEerI5P-545" target="vXdfwrLas3LhLGEerI5P-493">
          <mxGeometry width="50" height="50" relative="1" as="geometry">
            <mxPoint x="310" y="410" as="sourcePoint" />
            <mxPoint x="430" y="490" as="targetPoint" />
          </mxGeometry>
        </mxCell>
        <mxCell id="vXdfwrLas3LhLGEerI5P-497" value="2. 인증번호 전달" style="edgeLabel;html=1;align=center;verticalAlign=middle;resizable=0;points=[];" vertex="1" connectable="0" parent="vXdfwrLas3LhLGEerI5P-494">
          <mxGeometry x="-0.5972" y="-1" relative="1" as="geometry">
            <mxPoint x="44" y="-1" as="offset" />
          </mxGeometry>
        </mxCell>
        <mxCell id="vXdfwrLas3LhLGEerI5P-496" value="" style="endArrow=none;dashed=1;html=1;rounded=0;dashPattern=8 8;entryX=0.438;entryY=0.95;entryDx=0;entryDy=0;entryPerimeter=0;" edge="1" parent="vXdfwrLas3LhLGEerI5P-545" target="vXdfwrLas3LhLGEerI5P-493">
          <mxGeometry width="50" height="50" relative="1" as="geometry">
            <mxPoint x="508" y="920" as="sourcePoint" />
            <mxPoint x="508" y="274" as="targetPoint" />
          </mxGeometry>
        </mxCell>
        <mxCell id="vXdfwrLas3LhLGEerI5P-499" value="" style="endArrow=classic;html=1;rounded=0;entryX=0;entryY=0;entryDx=0;entryDy=0;" edge="1" parent="vXdfwrLas3LhLGEerI5P-545" target="vXdfwrLas3LhLGEerI5P-498">
          <mxGeometry width="50" height="50" relative="1" as="geometry">
            <mxPoint x="530" y="420" as="sourcePoint" />
            <mxPoint x="430" y="490" as="targetPoint" />
          </mxGeometry>
        </mxCell>
        <mxCell id="vXdfwrLas3LhLGEerI5P-501" value="3. 인증코드 유효성 확인" style="edgeLabel;html=1;align=center;verticalAlign=middle;resizable=0;points=[];" vertex="1" connectable="0" parent="vXdfwrLas3LhLGEerI5P-499">
          <mxGeometry x="-0.2821" y="4" relative="1" as="geometry">
            <mxPoint x="30" y="4" as="offset" />
          </mxGeometry>
        </mxCell>
        <mxCell id="vXdfwrLas3LhLGEerI5P-500" value="" style="endArrow=none;dashed=1;html=1;rounded=0;dashPattern=8 8;entryX=0.5;entryY=1;entryDx=0;entryDy=0;" edge="1" parent="vXdfwrLas3LhLGEerI5P-545" target="vXdfwrLas3LhLGEerI5P-498">
          <mxGeometry width="50" height="50" relative="1" as="geometry">
            <mxPoint x="745" y="920" as="sourcePoint" />
            <mxPoint x="745" y="260" as="targetPoint" />
          </mxGeometry>
        </mxCell>
        <mxCell id="vXdfwrLas3LhLGEerI5P-498" value="" style="rounded=0;whiteSpace=wrap;html=1;" vertex="1" parent="vXdfwrLas3LhLGEerI5P-545">
          <mxGeometry x="725" y="420" width="40" height="240" as="geometry" />
        </mxCell>
        <mxCell id="vXdfwrLas3LhLGEerI5P-502" value="" style="endArrow=classic;html=1;rounded=0;" edge="1" parent="vXdfwrLas3LhLGEerI5P-545" source="vXdfwrLas3LhLGEerI5P-493">
          <mxGeometry width="50" height="50" relative="1" as="geometry">
            <mxPoint x="535" y="620" as="sourcePoint" />
            <mxPoint x="725" y="620" as="targetPoint" />
          </mxGeometry>
        </mxCell>
        <mxCell id="vXdfwrLas3LhLGEerI5P-503" value="4. 인증코드 삭제" style="edgeLabel;html=1;align=center;verticalAlign=middle;resizable=0;points=[];" vertex="1" connectable="0" parent="vXdfwrLas3LhLGEerI5P-502">
          <mxGeometry x="-0.3846" y="-1" relative="1" as="geometry">
            <mxPoint x="40" as="offset" />
          </mxGeometry>
        </mxCell>
        <mxCell id="vXdfwrLas3LhLGEerI5P-512" value="[인증 성공]" style="text;html=1;align=center;verticalAlign=middle;whiteSpace=wrap;rounded=0;" vertex="1" parent="vXdfwrLas3LhLGEerI5P-545">
          <mxGeometry x="350" y="570" width="60" height="30" as="geometry" />
        </mxCell>
        <mxCell id="vXdfwrLas3LhLGEerI5P-514" value="" style="endArrow=none;dashed=1;html=1;rounded=0;entryX=1;entryY=0.5;entryDx=0;entryDy=0;exitX=0;exitY=0.5;exitDx=0;exitDy=0;" edge="1" parent="vXdfwrLas3LhLGEerI5P-545" source="vXdfwrLas3LhLGEerI5P-507" target="vXdfwrLas3LhLGEerI5P-507">
          <mxGeometry width="50" height="50" relative="1" as="geometry">
            <mxPoint x="60" y="712.5" as="sourcePoint" />
            <mxPoint x="570" y="707.5" as="targetPoint" />
          </mxGeometry>
        </mxCell>
        <mxCell id="vXdfwrLas3LhLGEerI5P-493" value="" style="rounded=0;whiteSpace=wrap;html=1;" vertex="1" parent="vXdfwrLas3LhLGEerI5P-545">
          <mxGeometry x="490" y="410" width="40" height="420" as="geometry" />
        </mxCell>
        <mxCell id="vXdfwrLas3LhLGEerI5P-515" value="[인증 실패]" style="text;html=1;align=center;verticalAlign=middle;whiteSpace=wrap;rounded=0;" vertex="1" parent="vXdfwrLas3LhLGEerI5P-545">
          <mxGeometry x="350" y="710" width="60" height="30" as="geometry" />
        </mxCell>
        <mxCell id="vXdfwrLas3LhLGEerI5P-517" value="" style="endArrow=none;dashed=1;html=1;rounded=0;dashPattern=8 8;entryX=0.5;entryY=1;entryDx=0;entryDy=0;" edge="1" parent="vXdfwrLas3LhLGEerI5P-545" target="vXdfwrLas3LhLGEerI5P-516">
          <mxGeometry width="50" height="50" relative="1" as="geometry">
            <mxPoint x="290" y="920" as="sourcePoint" />
            <mxPoint x="291" y="460" as="targetPoint" />
          </mxGeometry>
        </mxCell>
        <mxCell id="vXdfwrLas3LhLGEerI5P-516" value="" style="rounded=0;whiteSpace=wrap;html=1;" vertex="1" parent="vXdfwrLas3LhLGEerI5P-545">
          <mxGeometry x="271" y="610" width="40" height="60" as="geometry" />
        </mxCell>
        <mxCell id="vXdfwrLas3LhLGEerI5P-519" value="" style="endArrow=none;dashed=1;html=1;rounded=0;dashPattern=8 8;entryX=0.5;entryY=1;entryDx=0;entryDy=0;" edge="1" parent="vXdfwrLas3LhLGEerI5P-545" source="vXdfwrLas3LhLGEerI5P-526" target="vXdfwrLas3LhLGEerI5P-518">
          <mxGeometry width="50" height="50" relative="1" as="geometry">
            <mxPoint x="60" y="1010" as="sourcePoint" />
            <mxPoint x="60" y="98" as="targetPoint" />
          </mxGeometry>
        </mxCell>
        <mxCell id="vXdfwrLas3LhLGEerI5P-518" value="" style="rounded=0;whiteSpace=wrap;html=1;" vertex="1" parent="vXdfwrLas3LhLGEerI5P-545">
          <mxGeometry x="40" y="640" width="40" height="60" as="geometry" />
        </mxCell>
        <mxCell id="vXdfwrLas3LhLGEerI5P-520" value="" style="endArrow=classic;html=1;rounded=0;entryX=1;entryY=0.25;entryDx=0;entryDy=0;dashed=1;" edge="1" parent="vXdfwrLas3LhLGEerI5P-545">
          <mxGeometry width="50" height="50" relative="1" as="geometry">
            <mxPoint x="486" y="634" as="sourcePoint" />
            <mxPoint x="307.9999999999998" y="634" as="targetPoint" />
          </mxGeometry>
        </mxCell>
        <mxCell id="vXdfwrLas3LhLGEerI5P-521" value="5. &quot;인증 성공&quot;" style="edgeLabel;html=1;align=center;verticalAlign=middle;resizable=0;points=[];" vertex="1" connectable="0" parent="vXdfwrLas3LhLGEerI5P-520">
          <mxGeometry x="0.323" y="3" relative="1" as="geometry">
            <mxPoint x="28" y="-3" as="offset" />
          </mxGeometry>
        </mxCell>
        <mxCell id="vXdfwrLas3LhLGEerI5P-523" value="" style="endArrow=classic;html=1;rounded=0;exitX=0;exitY=1;exitDx=0;exitDy=0;dashed=1;" edge="1" parent="vXdfwrLas3LhLGEerI5P-545" source="vXdfwrLas3LhLGEerI5P-516" target="vXdfwrLas3LhLGEerI5P-518">
          <mxGeometry width="50" height="50" relative="1" as="geometry">
            <mxPoint x="420" y="670" as="sourcePoint" />
            <mxPoint x="470" y="620" as="targetPoint" />
          </mxGeometry>
        </mxCell>
        <mxCell id="vXdfwrLas3LhLGEerI5P-524" value="6. 인증 완료 메시지 표시" style="edgeLabel;html=1;align=center;verticalAlign=middle;resizable=0;points=[];" vertex="1" connectable="0" parent="vXdfwrLas3LhLGEerI5P-523">
          <mxGeometry x="0.3586" y="-1" relative="1" as="geometry">
            <mxPoint x="38" as="offset" />
          </mxGeometry>
        </mxCell>
        <mxCell id="vXdfwrLas3LhLGEerI5P-527" value="" style="endArrow=none;dashed=1;html=1;rounded=0;dashPattern=8 8;entryX=0.5;entryY=1;entryDx=0;entryDy=0;" edge="1" parent="vXdfwrLas3LhLGEerI5P-545" target="vXdfwrLas3LhLGEerI5P-526">
          <mxGeometry width="50" height="50" relative="1" as="geometry">
            <mxPoint x="61" y="920" as="sourcePoint" />
            <mxPoint x="60" y="700" as="targetPoint" />
          </mxGeometry>
        </mxCell>
        <mxCell id="vXdfwrLas3LhLGEerI5P-526" value="" style="rounded=0;whiteSpace=wrap;html=1;" vertex="1" parent="vXdfwrLas3LhLGEerI5P-545">
          <mxGeometry x="40.5" y="760" width="40" height="60" as="geometry" />
        </mxCell>
        <mxCell id="vXdfwrLas3LhLGEerI5P-530" value="" style="rounded=0;whiteSpace=wrap;html=1;" vertex="1" parent="vXdfwrLas3LhLGEerI5P-545">
          <mxGeometry x="270" y="760" width="40" height="60" as="geometry" />
        </mxCell>
        <mxCell id="vXdfwrLas3LhLGEerI5P-532" value="" style="endArrow=classic;html=1;rounded=0;exitX=0.031;exitY=0.866;exitDx=0;exitDy=0;exitPerimeter=0;entryX=1;entryY=0.25;entryDx=0;entryDy=0;" edge="1" parent="vXdfwrLas3LhLGEerI5P-545" source="vXdfwrLas3LhLGEerI5P-493" target="vXdfwrLas3LhLGEerI5P-530">
          <mxGeometry width="50" height="50" relative="1" as="geometry">
            <mxPoint x="420" y="670" as="sourcePoint" />
            <mxPoint x="310" y="770" as="targetPoint" />
          </mxGeometry>
        </mxCell>
        <mxCell id="vXdfwrLas3LhLGEerI5P-534" value="7. &quot;인증실패 ,인증번호 틀림 또는 만료" style="edgeLabel;html=1;align=center;verticalAlign=middle;resizable=0;points=[];" vertex="1" connectable="0" parent="vXdfwrLas3LhLGEerI5P-532">
          <mxGeometry x="0.5034" relative="1" as="geometry">
            <mxPoint x="50" as="offset" />
          </mxGeometry>
        </mxCell>
        <mxCell id="vXdfwrLas3LhLGEerI5P-535" value="" style="endArrow=classic;html=1;rounded=0;entryX=1;entryY=0.75;entryDx=0;entryDy=0;exitX=0;exitY=0.75;exitDx=0;exitDy=0;dashed=1;" edge="1" parent="vXdfwrLas3LhLGEerI5P-545" source="vXdfwrLas3LhLGEerI5P-530" target="vXdfwrLas3LhLGEerI5P-526">
          <mxGeometry width="50" height="50" relative="1" as="geometry">
            <mxPoint x="420" y="670" as="sourcePoint" />
            <mxPoint x="470" y="620" as="targetPoint" />
          </mxGeometry>
        </mxCell>
        <mxCell id="vXdfwrLas3LhLGEerI5P-536" value="8. 실패 알림" style="edgeLabel;html=1;align=center;verticalAlign=middle;resizable=0;points=[];" vertex="1" connectable="0" parent="vXdfwrLas3LhLGEerI5P-535">
          <mxGeometry x="0.2533" y="1" relative="1" as="geometry">
            <mxPoint x="29" as="offset" />
          </mxGeometry>
        </mxCell>
        <mxCell id="vXdfwrLas3LhLGEerI5P-549" value="alt" style="rounded=0;whiteSpace=wrap;html=1;" vertex="1" parent="vXdfwrLas3LhLGEerI5P-545">
          <mxGeometry x="11" y="570" width="30" height="30" as="geometry" />
        </mxCell>
        <mxCell id="vXdfwrLas3LhLGEerI5P-546" value="" style="endArrow=none;html=1;rounded=0;entryX=0.5;entryY=1;entryDx=0;entryDy=0;dashed=1;dashPattern=8 8;" edge="1" parent="1" source="vXdfwrLas3LhLGEerI5P-555">
          <mxGeometry width="50" height="50" relative="1" as="geometry">
            <mxPoint x="1319" y="990" as="sourcePoint" />
            <mxPoint x="1319" y="118" as="targetPoint" />
          </mxGeometry>
        </mxCell>
        <mxCell id="vXdfwrLas3LhLGEerI5P-547" value="" style="endArrow=none;html=1;rounded=0;entryX=0.5;entryY=1;entryDx=0;entryDy=0;dashed=1;dashPattern=8 8;" edge="1" parent="1" source="vXdfwrLas3LhLGEerI5P-570">
          <mxGeometry width="50" height="50" relative="1" as="geometry">
            <mxPoint x="1593" y="990" as="sourcePoint" />
            <mxPoint x="1593" y="118" as="targetPoint" />
          </mxGeometry>
        </mxCell>
        <mxCell id="vXdfwrLas3LhLGEerI5P-548" value="" style="endArrow=none;html=1;rounded=0;entryX=0.5;entryY=1;entryDx=0;entryDy=0;dashed=1;dashPattern=8 8;" edge="1" parent="1" source="vXdfwrLas3LhLGEerI5P-580">
          <mxGeometry width="50" height="50" relative="1" as="geometry">
            <mxPoint x="1869.17" y="990" as="sourcePoint" />
            <mxPoint x="1869.17" y="118" as="targetPoint" />
          </mxGeometry>
        </mxCell>
        <mxCell id="vXdfwrLas3LhLGEerI5P-554" value="" style="endArrow=none;html=1;rounded=0;entryX=0.5;entryY=1;entryDx=0;entryDy=0;dashed=1;dashPattern=8 8;" edge="1" parent="1" source="vXdfwrLas3LhLGEerI5P-594" target="vXdfwrLas3LhLGEerI5P-552">
          <mxGeometry width="50" height="50" relative="1" as="geometry">
            <mxPoint x="1060" y="990" as="sourcePoint" />
            <mxPoint x="1060" y="118" as="targetPoint" />
          </mxGeometry>
        </mxCell>
        <mxCell id="vXdfwrLas3LhLGEerI5P-552" value="" style="rounded=0;whiteSpace=wrap;html=1;" vertex="1" parent="1">
          <mxGeometry x="1040" y="140" width="40" height="90" as="geometry" />
        </mxCell>
        <mxCell id="vXdfwrLas3LhLGEerI5P-556" value="" style="endArrow=none;html=1;rounded=0;entryX=0.5;entryY=1;entryDx=0;entryDy=0;dashed=1;dashPattern=8 8;" edge="1" parent="1" source="vXdfwrLas3LhLGEerI5P-590" target="vXdfwrLas3LhLGEerI5P-555">
          <mxGeometry width="50" height="50" relative="1" as="geometry">
            <mxPoint x="1319" y="990" as="sourcePoint" />
            <mxPoint x="1319" y="118" as="targetPoint" />
          </mxGeometry>
        </mxCell>
        <mxCell id="vXdfwrLas3LhLGEerI5P-561" style="edgeStyle=orthogonalEdgeStyle;rounded=0;orthogonalLoop=1;jettySize=auto;html=1;exitX=1;exitY=0.25;exitDx=0;exitDy=0;entryX=1;entryY=0.75;entryDx=0;entryDy=0;" edge="1" parent="1" source="vXdfwrLas3LhLGEerI5P-555" target="vXdfwrLas3LhLGEerI5P-555">
          <mxGeometry relative="1" as="geometry">
            <mxPoint x="1420" y="220" as="targetPoint" />
            <Array as="points">
              <mxPoint x="1410" y="171" />
              <mxPoint x="1410" y="211" />
            </Array>
          </mxGeometry>
        </mxCell>
        <mxCell id="vXdfwrLas3LhLGEerI5P-562" value="2. 이메일 인증 여부 확인" style="edgeLabel;html=1;align=center;verticalAlign=middle;resizable=0;points=[];" vertex="1" connectable="0" parent="vXdfwrLas3LhLGEerI5P-561">
          <mxGeometry x="-0.7385" y="2" relative="1" as="geometry">
            <mxPoint x="46" y="22" as="offset" />
          </mxGeometry>
        </mxCell>
        <mxCell id="vXdfwrLas3LhLGEerI5P-555" value="" style="rounded=0;whiteSpace=wrap;html=1;" vertex="1" parent="1">
          <mxGeometry x="1300" y="150" width="40" height="80" as="geometry" />
        </mxCell>
        <mxCell id="vXdfwrLas3LhLGEerI5P-557" value="" style="endArrow=classic;html=1;rounded=0;entryX=0;entryY=0;entryDx=0;entryDy=0;" edge="1" parent="1" target="vXdfwrLas3LhLGEerI5P-555">
          <mxGeometry width="50" height="50" relative="1" as="geometry">
            <mxPoint x="1078" y="150" as="sourcePoint" />
            <mxPoint x="1110" y="610" as="targetPoint" />
          </mxGeometry>
        </mxCell>
        <mxCell id="vXdfwrLas3LhLGEerI5P-558" value="1. 회원가입 폼 작성 + 제출" style="edgeLabel;html=1;align=center;verticalAlign=middle;resizable=0;points=[];" vertex="1" connectable="0" parent="vXdfwrLas3LhLGEerI5P-557">
          <mxGeometry x="-0.1219" y="-3" relative="1" as="geometry">
            <mxPoint x="14" y="-3" as="offset" />
          </mxGeometry>
        </mxCell>
        <mxCell id="vXdfwrLas3LhLGEerI5P-564" value="alt" style="rounded=0;whiteSpace=wrap;html=1;" vertex="1" parent="1">
          <mxGeometry x="1000" y="260" width="30" height="30" as="geometry" />
        </mxCell>
        <mxCell id="vXdfwrLas3LhLGEerI5P-567" value="alt" style="rounded=0;whiteSpace=wrap;html=1;" vertex="1" parent="1">
          <mxGeometry x="1020" y="400" width="30" height="30" as="geometry" />
        </mxCell>
        <mxCell id="vXdfwrLas3LhLGEerI5P-568" value="[인증 완료됨]" style="text;html=1;align=center;verticalAlign=middle;whiteSpace=wrap;rounded=0;" vertex="1" parent="1">
          <mxGeometry x="1405" y="260" width="120" height="30" as="geometry" />
        </mxCell>
        <mxCell id="vXdfwrLas3LhLGEerI5P-569" value="" style="rounded=0;whiteSpace=wrap;html=1;" vertex="1" parent="1">
          <mxGeometry x="1300" y="290" width="40" height="70" as="geometry" />
        </mxCell>
        <mxCell id="vXdfwrLas3LhLGEerI5P-571" value="" style="endArrow=none;html=1;rounded=0;entryX=0.5;entryY=1;entryDx=0;entryDy=0;dashed=1;dashPattern=8 8;" edge="1" parent="1" source="vXdfwrLas3LhLGEerI5P-578" target="vXdfwrLas3LhLGEerI5P-570">
          <mxGeometry width="50" height="50" relative="1" as="geometry">
            <mxPoint x="1593" y="990" as="sourcePoint" />
            <mxPoint x="1593" y="118" as="targetPoint" />
          </mxGeometry>
        </mxCell>
        <mxCell id="vXdfwrLas3LhLGEerI5P-570" value="" style="rounded=0;whiteSpace=wrap;html=1;" vertex="1" parent="1">
          <mxGeometry x="1574" y="300" width="40" height="70" as="geometry" />
        </mxCell>
        <mxCell id="vXdfwrLas3LhLGEerI5P-572" value="" style="endArrow=classic;html=1;rounded=0;exitX=1.022;exitY=0.148;exitDx=0;exitDy=0;entryX=0;entryY=0;entryDx=0;entryDy=0;exitPerimeter=0;" edge="1" parent="1" source="vXdfwrLas3LhLGEerI5P-569" target="vXdfwrLas3LhLGEerI5P-570">
          <mxGeometry width="50" height="50" relative="1" as="geometry">
            <mxPoint x="1380" y="400" as="sourcePoint" />
            <mxPoint x="1430" y="350" as="targetPoint" />
          </mxGeometry>
        </mxCell>
        <mxCell id="vXdfwrLas3LhLGEerI5P-573" value="3. 회원가입 정보 전달" style="edgeLabel;html=1;align=center;verticalAlign=middle;resizable=0;points=[];" vertex="1" connectable="0" parent="vXdfwrLas3LhLGEerI5P-572">
          <mxGeometry x="-0.0968" relative="1" as="geometry">
            <mxPoint x="4" as="offset" />
          </mxGeometry>
        </mxCell>
        <mxCell id="vXdfwrLas3LhLGEerI5P-575" style="edgeStyle=orthogonalEdgeStyle;rounded=0;orthogonalLoop=1;jettySize=auto;html=1;exitX=1;exitY=0.25;exitDx=0;exitDy=0;entryX=1;entryY=0.75;entryDx=0;entryDy=0;" edge="1" parent="1" source="vXdfwrLas3LhLGEerI5P-570" target="vXdfwrLas3LhLGEerI5P-570">
          <mxGeometry relative="1" as="geometry">
            <mxPoint x="1620" y="353" as="targetPoint" />
            <Array as="points">
              <mxPoint x="1670" y="318" />
              <mxPoint x="1670" y="353" />
            </Array>
          </mxGeometry>
        </mxCell>
        <mxCell id="vXdfwrLas3LhLGEerI5P-576" value="4. 이메일, 아이디 중복 검사" style="edgeLabel;html=1;align=center;verticalAlign=middle;resizable=0;points=[];" vertex="1" connectable="0" parent="vXdfwrLas3LhLGEerI5P-575">
          <mxGeometry x="-0.017" y="-1" relative="1" as="geometry">
            <mxPoint x="21" y="1" as="offset" />
          </mxGeometry>
        </mxCell>
        <mxCell id="vXdfwrLas3LhLGEerI5P-577" value="[중복 없음]" style="text;html=1;align=center;verticalAlign=middle;whiteSpace=wrap;rounded=0;" vertex="1" parent="1">
          <mxGeometry x="1405" y="400" width="120" height="30" as="geometry" />
        </mxCell>
        <mxCell id="vXdfwrLas3LhLGEerI5P-579" value="" style="endArrow=none;html=1;rounded=0;entryX=0.5;entryY=1;entryDx=0;entryDy=0;dashed=1;dashPattern=8 8;" edge="1" parent="1" target="vXdfwrLas3LhLGEerI5P-578">
          <mxGeometry width="50" height="50" relative="1" as="geometry">
            <mxPoint x="1594" y="1130" as="sourcePoint" />
            <mxPoint x="1594" y="370" as="targetPoint" />
          </mxGeometry>
        </mxCell>
        <mxCell id="vXdfwrLas3LhLGEerI5P-581" value="" style="endArrow=none;html=1;rounded=0;entryX=0.5;entryY=1;entryDx=0;entryDy=0;dashed=1;dashPattern=8 8;" edge="1" parent="1" target="vXdfwrLas3LhLGEerI5P-580">
          <mxGeometry width="50" height="50" relative="1" as="geometry">
            <mxPoint x="1870" y="1130" as="sourcePoint" />
            <mxPoint x="1869.17" y="118" as="targetPoint" />
          </mxGeometry>
        </mxCell>
        <mxCell id="vXdfwrLas3LhLGEerI5P-580" value="" style="rounded=0;whiteSpace=wrap;html=1;" vertex="1" parent="1">
          <mxGeometry x="1850" y="420" width="40" height="250" as="geometry" />
        </mxCell>
        <mxCell id="vXdfwrLas3LhLGEerI5P-582" value="" style="endArrow=classic;html=1;rounded=0;entryX=0.046;entryY=0.074;entryDx=0;entryDy=0;entryPerimeter=0;exitX=1.078;exitY=0.077;exitDx=0;exitDy=0;exitPerimeter=0;" edge="1" parent="1">
          <mxGeometry width="50" height="50" relative="1" as="geometry">
            <mxPoint x="1615.28" y="441.0200000000001" as="sourcePoint" />
            <mxPoint x="1850.0000000000002" y="439.9999999999999" as="targetPoint" />
          </mxGeometry>
        </mxCell>
        <mxCell id="vXdfwrLas3LhLGEerI5P-583" value="5. User 생성 및 저장" style="edgeLabel;html=1;align=center;verticalAlign=middle;resizable=0;points=[];" vertex="1" connectable="0" parent="vXdfwrLas3LhLGEerI5P-582">
          <mxGeometry x="-0.3544" relative="1" as="geometry">
            <mxPoint x="37" as="offset" />
          </mxGeometry>
        </mxCell>
        <mxCell id="vXdfwrLas3LhLGEerI5P-584" value="" style="endArrow=classic;html=1;rounded=0;exitX=0;exitY=0.25;exitDx=0;exitDy=0;entryX=1;entryY=0.25;entryDx=0;entryDy=0;dashed=1;" edge="1" parent="1">
          <mxGeometry width="50" height="50" relative="1" as="geometry">
            <mxPoint x="1850" y="480" as="sourcePoint" />
            <mxPoint x="1614" y="480" as="targetPoint" />
          </mxGeometry>
        </mxCell>
        <mxCell id="vXdfwrLas3LhLGEerI5P-585" value="6. 저장 성공" style="edgeLabel;html=1;align=center;verticalAlign=middle;resizable=0;points=[];" vertex="1" connectable="0" parent="vXdfwrLas3LhLGEerI5P-584">
          <mxGeometry x="0.1887" y="4" relative="1" as="geometry">
            <mxPoint x="20" y="-4" as="offset" />
          </mxGeometry>
        </mxCell>
        <mxCell id="vXdfwrLas3LhLGEerI5P-586" value="" style="endArrow=classic;html=1;rounded=0;" edge="1" parent="1">
          <mxGeometry width="50" height="50" relative="1" as="geometry">
            <mxPoint x="1614" y="518.75" as="sourcePoint" />
            <mxPoint x="1849" y="518.75" as="targetPoint" />
          </mxGeometry>
        </mxCell>
        <mxCell id="vXdfwrLas3LhLGEerI5P-587" value="7. 권한(Role) 정보 저장 (roleNum 기준)" style="edgeLabel;html=1;align=center;verticalAlign=middle;resizable=0;points=[];" vertex="1" connectable="0" parent="vXdfwrLas3LhLGEerI5P-586">
          <mxGeometry x="-0.3102" relative="1" as="geometry">
            <mxPoint x="31" y="1" as="offset" />
          </mxGeometry>
        </mxCell>
        <mxCell id="vXdfwrLas3LhLGEerI5P-588" value="" style="endArrow=classic;html=1;rounded=0;exitX=0;exitY=0.75;exitDx=0;exitDy=0;entryX=1;entryY=0.75;entryDx=0;entryDy=0;dashed=1;" edge="1" parent="1">
          <mxGeometry width="50" height="50" relative="1" as="geometry">
            <mxPoint x="1850" y="560" as="sourcePoint" />
            <mxPoint x="1614" y="560" as="targetPoint" />
          </mxGeometry>
        </mxCell>
        <mxCell id="vXdfwrLas3LhLGEerI5P-589" value="8. 저장 완료" style="edgeLabel;html=1;align=center;verticalAlign=middle;resizable=0;points=[];" vertex="1" connectable="0" parent="vXdfwrLas3LhLGEerI5P-588">
          <mxGeometry x="0.1351" y="-3" relative="1" as="geometry">
            <mxPoint x="19" y="1" as="offset" />
          </mxGeometry>
        </mxCell>
        <mxCell id="vXdfwrLas3LhLGEerI5P-591" value="" style="endArrow=none;html=1;rounded=0;entryX=0.5;entryY=1;entryDx=0;entryDy=0;dashed=1;dashPattern=8 8;" edge="1" parent="1" source="vXdfwrLas3LhLGEerI5P-615" target="vXdfwrLas3LhLGEerI5P-590">
          <mxGeometry width="50" height="50" relative="1" as="geometry">
            <mxPoint x="1320" y="1130" as="sourcePoint" />
            <mxPoint x="1320" y="230" as="targetPoint" />
          </mxGeometry>
        </mxCell>
        <mxCell id="vXdfwrLas3LhLGEerI5P-590" value="" style="rounded=0;whiteSpace=wrap;html=1;" vertex="1" parent="1">
          <mxGeometry x="1300" y="592" width="40" height="78" as="geometry" />
        </mxCell>
        <mxCell id="vXdfwrLas3LhLGEerI5P-592" value="" style="endArrow=classic;html=1;rounded=0;entryX=1;entryY=0;entryDx=0;entryDy=0;dashed=1;exitX=0.1;exitY=0.382;exitDx=0;exitDy=0;exitPerimeter=0;" edge="1" parent="1" source="vXdfwrLas3LhLGEerI5P-578" target="vXdfwrLas3LhLGEerI5P-590">
          <mxGeometry width="50" height="50" relative="1" as="geometry">
            <mxPoint x="1570" y="592" as="sourcePoint" />
            <mxPoint x="1450" y="440" as="targetPoint" />
          </mxGeometry>
        </mxCell>
        <mxCell id="vXdfwrLas3LhLGEerI5P-593" value="9. &quot;회원가입 성공&quot;" style="edgeLabel;html=1;align=center;verticalAlign=middle;resizable=0;points=[];" vertex="1" connectable="0" parent="vXdfwrLas3LhLGEerI5P-592">
          <mxGeometry x="0.2063" relative="1" as="geometry">
            <mxPoint x="25" as="offset" />
          </mxGeometry>
        </mxCell>
        <mxCell id="vXdfwrLas3LhLGEerI5P-595" value="" style="endArrow=none;html=1;rounded=0;entryX=0.5;entryY=1;entryDx=0;entryDy=0;dashed=1;dashPattern=8 8;" edge="1" parent="1" source="vXdfwrLas3LhLGEerI5P-606" target="vXdfwrLas3LhLGEerI5P-594">
          <mxGeometry width="50" height="50" relative="1" as="geometry">
            <mxPoint x="1060" y="1130" as="sourcePoint" />
            <mxPoint x="1060" y="230" as="targetPoint" />
          </mxGeometry>
        </mxCell>
        <mxCell id="vXdfwrLas3LhLGEerI5P-594" value="" style="rounded=0;whiteSpace=wrap;html=1;" vertex="1" parent="1">
          <mxGeometry x="1040" y="610" width="40" height="60" as="geometry" />
        </mxCell>
        <mxCell id="vXdfwrLas3LhLGEerI5P-596" value="" style="endArrow=classic;html=1;rounded=0;entryX=1;entryY=0;entryDx=0;entryDy=0;dashed=1;exitX=0;exitY=0.25;exitDx=0;exitDy=0;" edge="1" parent="1" source="vXdfwrLas3LhLGEerI5P-590" target="vXdfwrLas3LhLGEerI5P-594">
          <mxGeometry width="50" height="50" relative="1" as="geometry">
            <mxPoint x="1290" y="610" as="sourcePoint" />
            <mxPoint x="1320" y="660" as="targetPoint" />
          </mxGeometry>
        </mxCell>
        <mxCell id="vXdfwrLas3LhLGEerI5P-597" value="10. 가입 완료 메시지" style="edgeLabel;html=1;align=center;verticalAlign=middle;resizable=0;points=[];" vertex="1" connectable="0" parent="vXdfwrLas3LhLGEerI5P-596">
          <mxGeometry x="0.3374" y="-1" relative="1" as="geometry">
            <mxPoint x="37" y="1" as="offset" />
          </mxGeometry>
        </mxCell>
        <mxCell id="vXdfwrLas3LhLGEerI5P-578" value="" style="rounded=0;whiteSpace=wrap;html=1;" vertex="1" parent="1">
          <mxGeometry x="1574" y="420" width="40" height="450" as="geometry" />
        </mxCell>
        <mxCell id="vXdfwrLas3LhLGEerI5P-602" value="[중복 있음]" style="text;html=1;align=center;verticalAlign=middle;whiteSpace=wrap;rounded=0;" vertex="1" parent="1">
          <mxGeometry x="1405" y="710" width="120" height="30" as="geometry" />
        </mxCell>
        <mxCell id="vXdfwrLas3LhLGEerI5P-603" value="" style="rounded=0;whiteSpace=wrap;html=1;" vertex="1" parent="1">
          <mxGeometry x="1300" y="800" width="40" height="70" as="geometry" />
        </mxCell>
        <mxCell id="vXdfwrLas3LhLGEerI5P-604" value="" style="endArrow=classic;html=1;rounded=0;exitX=0.007;exitY=0.844;exitDx=0;exitDy=0;exitPerimeter=0;entryX=1;entryY=0;entryDx=0;entryDy=0;dashed=1;" edge="1" parent="1" source="vXdfwrLas3LhLGEerI5P-578" target="vXdfwrLas3LhLGEerI5P-603">
          <mxGeometry width="50" height="50" relative="1" as="geometry">
            <mxPoint x="1480" y="680" as="sourcePoint" />
            <mxPoint x="1530" y="630" as="targetPoint" />
          </mxGeometry>
        </mxCell>
        <mxCell id="vXdfwrLas3LhLGEerI5P-605" value="11. 에러 응답" style="edgeLabel;html=1;align=center;verticalAlign=middle;resizable=0;points=[];" vertex="1" connectable="0" parent="vXdfwrLas3LhLGEerI5P-604">
          <mxGeometry x="0.2453" y="2" relative="1" as="geometry">
            <mxPoint x="37" y="-2" as="offset" />
          </mxGeometry>
        </mxCell>
        <mxCell id="vXdfwrLas3LhLGEerI5P-608" value="" style="endArrow=none;html=1;rounded=0;entryX=0.5;entryY=1;entryDx=0;entryDy=0;dashed=1;dashPattern=8 8;" edge="1" parent="1" target="vXdfwrLas3LhLGEerI5P-606">
          <mxGeometry width="50" height="50" relative="1" as="geometry">
            <mxPoint x="1060" y="1130" as="sourcePoint" />
            <mxPoint x="1060" y="670" as="targetPoint" />
          </mxGeometry>
        </mxCell>
        <mxCell id="vXdfwrLas3LhLGEerI5P-606" value="" style="rounded=0;whiteSpace=wrap;html=1;" vertex="1" parent="1">
          <mxGeometry x="1040" y="810" width="40" height="60" as="geometry" />
        </mxCell>
        <mxCell id="vXdfwrLas3LhLGEerI5P-609" value="" style="endArrow=classic;html=1;rounded=0;entryX=1;entryY=0;entryDx=0;entryDy=0;dashed=1;" edge="1" parent="1" target="vXdfwrLas3LhLGEerI5P-606">
          <mxGeometry width="50" height="50" relative="1" as="geometry">
            <mxPoint x="1300" y="810" as="sourcePoint" />
            <mxPoint x="1440" y="910" as="targetPoint" />
          </mxGeometry>
        </mxCell>
        <mxCell id="vXdfwrLas3LhLGEerI5P-613" value="12. &quot;이미 존재하는 아이디" style="edgeLabel;html=1;align=center;verticalAlign=middle;resizable=0;points=[];" vertex="1" connectable="0" parent="vXdfwrLas3LhLGEerI5P-609">
          <mxGeometry x="0.3752" relative="1" as="geometry">
            <mxPoint x="41" as="offset" />
          </mxGeometry>
        </mxCell>
        <mxCell id="vXdfwrLas3LhLGEerI5P-614" value="[인증 안됨]" style="text;html=1;align=center;verticalAlign=middle;whiteSpace=wrap;rounded=0;" vertex="1" parent="1">
          <mxGeometry x="1405" y="930" width="120" height="30" as="geometry" />
        </mxCell>
        <mxCell id="vXdfwrLas3LhLGEerI5P-617" value="" style="endArrow=none;html=1;rounded=0;entryX=0.5;entryY=1;entryDx=0;entryDy=0;dashed=1;dashPattern=8 8;" edge="1" parent="1" target="vXdfwrLas3LhLGEerI5P-615">
          <mxGeometry width="50" height="50" relative="1" as="geometry">
            <mxPoint x="1320" y="1130" as="sourcePoint" />
            <mxPoint x="1320" y="670" as="targetPoint" />
          </mxGeometry>
        </mxCell>
        <mxCell id="vXdfwrLas3LhLGEerI5P-615" value="" style="rounded=0;whiteSpace=wrap;html=1;" vertex="1" parent="1">
          <mxGeometry x="1300" y="960" width="40" height="90" as="geometry" />
        </mxCell>
        <mxCell id="vXdfwrLas3LhLGEerI5P-618" value="" style="rounded=0;whiteSpace=wrap;html=1;" vertex="1" parent="1">
          <mxGeometry x="1040" y="970" width="40" height="70" as="geometry" />
        </mxCell>
        <mxCell id="vXdfwrLas3LhLGEerI5P-619" value="" style="endArrow=classic;html=1;rounded=0;entryX=1;entryY=1;entryDx=0;entryDy=0;dashed=1;" edge="1" parent="1" target="vXdfwrLas3LhLGEerI5P-618">
          <mxGeometry width="50" height="50" relative="1" as="geometry">
            <mxPoint x="1297" y="1040" as="sourcePoint" />
            <mxPoint x="1410" y="840" as="targetPoint" />
          </mxGeometry>
        </mxCell>
        <mxCell id="vXdfwrLas3LhLGEerI5P-620" value="13. &quot;이메일 인증 먼저 완료해주세요&quot;" style="edgeLabel;html=1;align=center;verticalAlign=middle;resizable=0;points=[];" vertex="1" connectable="0" parent="vXdfwrLas3LhLGEerI5P-619">
          <mxGeometry x="0.2828" y="-1" relative="1" as="geometry">
            <mxPoint x="32" y="1" as="offset" />
          </mxGeometry>
        </mxCell>
      </root>
    </mxGraphModel>
  </diagram>
</mxfile>
